<svg width="1882" height="1399" viewBox="0 0 1882 1399" fill="none" xmlns="http://www.w3.org/2000/svg">
<g clip-path="url(#clip0_1_15043)">
<path d="M495.416 399.334C494.818 394.611 493.61 389.986 491.822 385.574C491.594 384.74 491.194 383.963 490.649 383.291C490.104 382.62 489.425 382.069 488.656 381.674C487.627 381.407 486.548 381.395 485.514 381.639L469.385 384.108C468.035 384.169 466.742 384.672 465.704 385.538C463.604 387.747 465.672 391.305 465.608 394.353C465.536 397.781 462.49 400.563 459.188 401.484C455.817 402.165 452.34 402.122 448.987 401.357L426.433 397.852C433.076 395.731 438.988 391.786 443.496 386.465C446.464 382.949 448.043 376.384 443.753 374.719C442.479 374.369 441.15 374.262 439.836 374.404C429.617 374.484 421.576 365.951 412.01 362.357C405.888 360.206 399.242 360.046 393.023 361.9C386.804 363.754 381.33 367.528 377.385 372.68L389.399 373.26C390.53 373.197 391.651 373.496 392.6 374.113C395.233 376.277 391.959 380.433 392.33 383.821C392.812 388.222 398.656 389.162 403.061 389.607C407.466 390.052 413.054 393.632 410.936 397.519C388.795 405.146 366.265 382.61 343.012 385.385C337.127 386.087 331.57 388.399 325.825 389.853C290.726 398.734 254.44 375.038 218.584 380.056C210.613 381.415 202.779 383.481 195.175 386.231C190.295 387.833 185.204 389.565 181.659 393.281C178.113 396.998 176.763 403.353 180.122 407.239C170.864 408.002 161.544 407.116 152.595 404.623C155.015 405.968 157.028 407.94 158.423 410.332C159.818 412.723 160.544 415.447 160.524 418.216C146.068 420.573 131.994 424.865 118.683 430.975C121.167 435.107 124.069 438.973 127.343 442.512L109.042 454.271C115.225 455.829 118.421 464.261 114.826 469.527C121.237 466.674 125.21 459.296 132.065 457.8C136.557 456.819 141.127 458.657 145.387 460.383C149.648 462.109 154.331 463.783 158.741 462.487C163.152 461.192 166.405 455.472 163.603 451.828C182.455 446.327 201.939 443.283 221.57 442.771C223.085 442.581 224.621 442.872 225.96 443.604C228.516 445.377 227.844 449.207 227.706 452.315C227.568 455.422 229.99 459.506 232.767 458.106C229.5 460.939 232.293 466.274 235.428 469.253C238.562 472.233 242.341 476.344 240.422 480.22C239.921 481.232 239.071 482.041 238.589 483.062C237.167 486.075 239.425 489.588 242.089 491.589C244.753 493.59 248.017 494.988 249.867 497.759C251.718 500.53 250.877 505.379 247.568 505.766L238.162 493.823C234.949 497.155 232.746 501.331 231.809 505.865C241.783 514.019 243.283 530.617 234.933 540.428C230.666 545.441 224.597 548.488 219.301 552.399C214.005 556.309 209.104 561.878 209.117 568.462C209.14 579.837 208.211 590.404 212.473 600.95C220.332 620.396 229.406 639.329 239.641 657.636C242.328 662.443 245.802 667.712 251.246 668.54C244.365 651.787 238.171 634.774 232.664 617.5C236.251 617.514 240.396 617.798 242.499 620.705C244.24 623.112 243.866 626.384 244.407 629.305C245.096 632.135 246.243 634.833 247.804 637.291L280.663 695.828C283.387 700.68 286.511 705.889 291.717 707.854C295.045 709.11 298.896 708.874 301.96 710.683C304.361 712.1 305.978 714.617 308.426 715.953C315.348 719.729 324.974 712.487 331.442 716.995C333.292 718.285 334.468 720.333 336.173 721.809C342.147 726.983 351.947 723.522 358.844 727.381C363.289 729.869 365.592 734.844 367.963 739.353C373.901 750.646 383.51 761.71 396.237 762.609C400.235 762.892 404.318 762.134 408.226 763.023C412.134 763.912 415.981 767.323 415.353 771.281C414.278 778.068 417.631 785.5 416.73 792.312C415.09 804.72 397.491 810.173 395.979 822.598C395.648 825.319 396.167 828.126 395.519 830.789C394.725 834.053 392.274 836.71 391.403 839.954C389.753 846.101 394.157 852.219 398.995 856.355C403.833 860.491 409.604 864.057 412.249 869.847C415.044 875.966 413.671 883.101 414.58 889.767C416.565 904.32 429.133 915.108 442.068 922.065C446.009 924.184 450.24 926.236 452.791 929.913C456.12 934.712 455.789 941.038 456.9 946.772C459.623 960.815 471.443 972.386 471.779 986.686C472.018 996.85 466.368 1006.07 462.993 1015.66C459.829 1024.85 458.684 1034.61 459.637 1044.29C460.589 1053.96 463.616 1063.31 468.511 1071.71C471.035 1075.97 474.055 1079.99 475.841 1084.61C479.028 1092.86 477.994 1102.23 480.932 1110.57C484.817 1121.6 495.492 1130.7 494.47 1142.35C499.316 1152.41 510.018 1157.36 520.779 1160.36L540.065 1165.73C543.758 1166.75 547.617 1167.79 551.377 1167.04C555.138 1166.3 558.726 1163.18 558.629 1159.35C549.172 1157.21 539.411 1154.94 531.614 1149.18C523.818 1143.42 518.477 1133.15 521.435 1123.92C522.807 1119.64 525.725 1114.69 522.951 1111.15C521.362 1109.13 518.458 1108.6 516.666 1106.75C513.871 1103.87 514.831 1099.03 516.841 1095.55C518.85 1092.07 521.753 1088.97 522.564 1085.03C522.973 1082.83 522.7 1080.56 521.781 1078.52C520.861 1076.48 519.341 1074.77 517.422 1073.62C520.998 1072.27 524.25 1070.18 526.968 1067.49C529.478 1064.63 530.638 1060.21 528.663 1056.95C534.527 1057.69 541.451 1058.06 545.3 1053.57C548.374 1049.99 548.163 1044.63 546.949 1040.07C545.734 1035.51 543.681 1031.08 543.617 1026.36C557.145 1027 570.702 1026.54 584.156 1024.98C582.21 1018.43 577.79 1012.89 571.831 1009.54C577.924 1008.51 583.475 1001.22 585.4 995.344C587.325 989.471 586.834 983.075 585.644 977.01C585.187 975.448 585.124 973.798 585.462 972.207C586.148 970.02 588.296 968.685 590.283 967.544L620.527 950.173C622.332 949.269 623.968 948.061 625.363 946.602C628.532 942.88 628.062 937.261 626.44 932.649C624.818 928.038 622.219 923.702 621.594 918.853C619.725 904.353 635.245 893.949 640.483 880.299C642.539 874.943 642.958 869.12 643.356 863.396C643.783 857.249 643.815 850.108 639.095 846.147C634.571 842.349 627.501 843.196 622.767 839.664C618.427 836.425 616.929 830.136 612.188 827.52C607.882 825.144 602.482 826.655 597.693 825.538C589.261 823.571 583.954 813.851 575.342 812.951C570.483 812.444 564.984 814.819 561.001 811.989C557.492 809.495 557.352 804.483 556.684 800.23C555.513 793.62 552.345 787.528 547.607 782.773C542.868 778.019 536.786 774.831 530.181 773.639C525.171 772.836 519.718 773.141 515.456 770.388C511.14 767.599 509.161 762.379 505.771 758.518C500.308 752.295 491.703 750.084 483.642 748.189L450.854 740.481C445.034 739.112 437.531 738.386 434.408 743.485C433.483 745.427 432.829 747.486 432.462 749.605C431.292 753.438 428.937 756.801 425.735 759.212C422.533 761.622 418.649 762.955 414.643 763.019C411.895 758.331 407.443 754.886 402.216 753.403C398.891 752.476 395.332 752.373 392.162 751.01C390.435 750.167 388.898 748.98 387.645 747.523C386.393 746.065 385.451 744.367 384.877 742.533C384.304 740.699 384.11 738.767 384.309 736.855C384.508 734.944 385.095 733.093 386.033 731.416C387.924 728.05 388.654 724.155 388.111 720.333C387.568 716.511 385.782 712.973 383.029 710.267C377.453 705.261 369.387 704.051 361.911 704.552C359.953 700.279 363.227 695.458 366.755 692.352C370.283 689.247 374.568 686.194 375.336 681.557C376.545 674.262 367.238 668.722 360.172 670.897C353.106 673.072 348.596 679.936 345.615 686.702C343.904 690.584 342.45 694.672 339.752 697.946C337.054 701.219 332.709 703.563 328.599 702.513C322.781 701.025 320.534 694.112 319.246 688.246C317.518 680.375 315.781 672.395 316.143 664.346C316.505 656.296 319.218 648.03 325.153 642.581C334.825 633.701 349.663 634.571 362.716 635.988C359.632 632.513 360.394 626.656 363.693 623.386C365.435 621.838 367.528 620.738 369.791 620.182C372.054 619.626 374.418 619.631 376.679 620.195C380.612 621.014 384.155 623.133 386.738 626.21C390.447 630.733 391.502 636.84 394.306 641.974C397.11 647.107 403.414 651.486 408.574 648.732C413.031 646.353 413.738 640.172 412.629 635.243C411.52 630.314 409.164 625.52 409.566 620.484C410.332 610.874 420.293 605.089 429.084 601.131C437.874 597.173 447.939 591.85 449.331 582.311C449.379 580.443 449.731 578.596 450.374 576.841C451.349 575.292 452.704 574.018 454.31 573.14C479.964 556.184 506.045 539.022 535.366 529.757C536.891 529.275 537.07 529.811 538.625 529.433C540.801 528.175 539.359 524.696 537.273 523.295C535.187 521.893 532.399 520.819 531.87 518.362C531.481 516.556 532.545 514.782 532.821 512.955C533.5 508.467 528.131 504.322 523.961 506.117C521.606 502.997 526.266 499.372 530.035 498.335C541.35 495.22 552.966 493.322 564.685 492.674C566.037 492.459 567.423 492.694 568.628 493.345C570.596 494.708 570.345 497.836 568.95 499.782C567.555 501.728 565.385 502.95 563.647 504.597C561.748 506.447 560.393 508.783 559.731 511.351C559.069 513.919 559.125 516.619 559.892 519.157C566.01 522.269 572.661 525.473 579.437 524.377C586.212 523.28 592.226 515.666 589.041 509.586C586.076 503.923 577.167 502.646 575.635 496.44C573.841 489.174 584.126 482.711 581.809 475.595C580.795 472.477 577.688 470.643 575.305 468.392C572.49 465.633 570.575 462.086 569.811 458.219C569.048 454.351 569.472 450.343 571.028 446.721C567.146 447.404 563.156 447.146 559.394 445.969C555.631 444.791 552.206 442.729 549.406 439.954C544.234 434.734 540.108 426.5 532.764 426.733C526.024 426.948 520.219 434.811 513.918 432.412C512.367 431.822 510.733 430.621 509.23 431.324C508.738 431.644 508.325 432.072 508.022 432.574C507.719 433.077 507.535 433.642 507.482 434.227C505.881 441.884 508.636 450.609 504.463 457.226C499.922 464.426 489.418 465.424 483.913 471.917C480.925 475.442 479.767 480.191 477.02 483.907C474.273 487.623 468.443 489.986 465.147 486.747C466.767 483.417 467.209 479.635 466.402 476.02C465.594 472.405 463.584 469.171 460.701 466.846C457.64 464.849 454.341 463.244 450.881 462.069C447.015 460.432 443.337 458.382 439.911 455.955C438.195 454.919 436.801 453.427 435.884 451.645C435.159 449.413 435.256 446.996 436.159 444.83C437.831 440.037 440.78 435.792 444.687 432.553C448.595 429.313 453.313 427.203 458.332 426.45C462.721 425.853 467.83 426.063 470.734 422.719C472.271 420.949 473.078 418.274 475.308 417.555C476.735 417.268 478.217 417.451 479.531 418.075L495.913 423.842C497.741 424.667 499.753 425 501.749 424.807C502.739 424.674 503.642 424.171 504.276 423.4C504.911 422.628 505.23 421.646 505.171 420.649C504.647 417.928 500.461 416.622 500.842 413.878C501.055 412.988 501.533 412.185 502.213 411.573C508.125 405.28 515.355 400.372 523.386 397.2C531.417 394.028 540.049 392.672 548.666 393.227C550.733 396.623 547.463 400.645 544.742 403.544C542.021 406.444 539.835 411.624 543.125 413.856C544.474 414.544 545.974 414.882 547.487 414.838C551.52 415.384 555.44 416.573 559.097 418.36C564.758 420.824 570.31 423.52 575.754 426.447C575.273 422.858 574.814 419.076 576.175 415.72C577.535 412.363 581.402 409.731 584.779 411.038C588.034 412.298 589.703 416.608 593.17 417.002C597.796 417.529 599.621 410.695 597.689 406.459C595.757 402.223 591.932 398.676 591.612 394.031C591.397 390.898 592.589 387.011 590.086 385.114C589.196 384.544 588.185 384.189 587.133 384.078L524.639 372.577C520.928 371.894 515.566 372.417 515.402 376.187C515.31 378.292 517.189 380.374 516.357 382.309C515.468 384.374 512.549 384.185 510.423 384.916C507.125 386.049 505.469 389.966 505.786 393.44C506.366 396.892 507.703 400.173 509.7 403.047C505.635 401.347 499.48 401.034 495.416 399.334Z" fill="#3F3D56"/>
<path d="M445.551 346.279C441.611 344.975 437.364 344.914 433.388 346.105C429.411 347.296 425.897 349.681 423.322 352.937C422.293 354.292 421.428 356.16 422.29 357.627C423.525 359.731 426.672 358.9 428.992 358.147C432.402 356.929 436.114 356.84 439.579 357.895C441.757 358.643 443.706 359.965 445.894 360.685C446.96 361.13 448.126 361.278 449.268 361.111C450.411 360.944 451.486 360.469 452.379 359.737C453.881 358.205 453.975 355.824 453.978 353.679C454.082 352.961 454.025 352.229 453.81 351.536C453.595 350.843 453.228 350.207 452.737 349.674C451.861 349.167 450.877 348.876 449.866 348.825C447.602 348.406 445.555 347.21 444.078 345.443" fill="#3F3D56"/>
<path d="M468.086 340.004C467.204 339.956 466.325 340.136 465.532 340.526C464.74 340.916 464.061 341.504 463.561 342.232C463.062 342.96 462.758 343.805 462.679 344.685C462.6 345.564 462.748 346.45 463.11 347.255C465.819 347.994 468.648 348.179 471.43 347.798C472.817 347.583 474.11 346.961 475.144 346.012C476.179 345.064 476.91 343.83 477.245 342.466C473.97 343.062 470.591 342.417 467.766 340.656" fill="#3F3D56"/>
<path d="M543.69 329.525C536.318 331.092 529.157 333.525 522.356 336.773C525.562 338.005 528.288 340.235 530.131 343.134C531.974 346.033 532.837 349.447 532.594 352.874C532.306 354.189 532.339 355.555 532.691 356.854C533.474 358.754 535.745 359.467 537.741 359.954C541.327 361.046 545.072 361.524 548.817 361.368C550.69 361.27 552.51 360.707 554.111 359.728C555.711 358.75 557.043 357.388 557.985 355.765C558.528 354.225 559.165 352.72 559.892 351.258C564.676 343.971 578.889 352.782 584.026 345.739C585.836 343.258 585.67 339.523 588.029 337.557C589.25 336.7 590.664 336.161 592.144 335.986C602.475 333.934 612.909 332.447 623.402 331.534C628.373 331.101 634.854 329.316 634.895 324.325C616.169 320.647 596.753 323.26 579.664 331.756C573.507 334.84 565.364 341.328 559.434 337.239C557.213 335.708 557.323 331.586 554.267 329.864C551.143 328.104 547.007 328.82 543.69 329.525Z" fill="#3F3D56"/>
<path d="M604.93 340.978L613.72 342.667C612.102 342.596 610.487 342.87 608.983 343.472C607.48 344.074 606.122 344.989 605 346.158C603.878 347.326 603.018 348.72 602.478 350.247C601.937 351.774 601.729 353.399 601.866 355.013C610.098 357.763 619.072 355.087 627.744 355.452C636.415 355.818 646.504 362.012 645.024 370.565C644.576 373.151 643.082 375.735 643.859 378.242C644.403 379.999 645.953 381.246 646.827 382.864C648.65 386.236 647.193 390.501 644.892 393.567C642.591 396.632 639.498 399.078 637.478 402.336C632.454 410.438 635.308 420.912 638.301 429.964C639.166 433.384 640.764 436.575 642.984 439.317C647.418 444.032 654.643 444.442 661.114 444.536C665.824 444.605 671.219 444.372 674.197 440.723C678.086 435.958 675.367 428.525 677.927 422.933C680.252 417.854 686.176 415.676 691.543 414.13C701.375 411.299 711.395 408.893 720.69 404.617C732.233 399.307 743.02 391.033 755.707 390.349C759.266 390.157 762.914 390.577 766.342 389.602C769.77 388.627 773.027 385.663 772.768 382.107C772.546 379.07 769.976 376.839 767.968 374.549C765.96 372.259 764.383 368.738 766.229 366.315L799.482 360.103C797.125 353.679 795.289 345.218 800.705 341.036C802.659 339.527 805.276 338.924 806.94 337.1C809.776 333.991 808.35 328.636 805.076 325.992C801.802 323.348 797.376 322.734 793.182 322.386C778.602 321.175 763.937 321.975 749.328 322.776C720.77 324.341 692.213 325.907 663.655 327.472C657.906 327.787 651.269 327.306 645.996 329.267C641.532 330.928 638.359 333.976 633.253 335.047C623.829 337.024 613.458 335.686 604.93 340.978Z" fill="#3F3D56"/>
<path d="M762.405 410.466C761.509 410.324 760.593 410.532 759.846 411.046C759.353 411.59 759.059 412.286 759.014 413.019C758.446 416.256 759.122 419.587 760.906 422.346C761.815 423.699 763.069 424.785 764.539 425.49C766.009 426.195 767.641 426.493 769.266 426.354C773.224 425.849 776.141 422.472 779.779 420.824C785.388 418.287 809.205 414.331 792.73 405.429C787.052 402.361 783.383 405.069 778.908 407.09C773.816 409.695 768.111 410.862 762.405 410.466Z" fill="#3F3D56"/>
<path d="M906.714 335.952C904.79 336.738 903.18 338.14 902.137 339.937C901.656 340.849 901.544 341.912 901.825 342.905C902.105 343.897 902.757 344.744 903.644 345.27C904.363 345.531 905.125 345.651 905.888 345.626L913.711 345.86C917.034 345.959 921.185 346.667 922.078 349.87C922.741 352.248 921.257 355.304 923.048 357.003C923.816 357.598 924.74 357.959 925.709 358.041C928.286 358.703 930.977 358.79 933.591 358.296C939.282 356.769 936.292 353.295 938.084 350.201C940.827 345.468 940.352 348.333 945.185 345.62C948.754 343.617 953.366 339.983 950.387 334.877C945.207 325.998 914.358 332.138 906.714 335.952Z" fill="#3F3D56"/>
<path d="M1061.11 331.488L1056.57 332.095C1046.32 333.462 1036.02 334.841 1026.16 337.917C1030.43 339.606 1034.91 340.706 1039.47 341.186C1041.99 341.309 1044.49 341.664 1046.93 342.246C1051.29 343.543 1055.68 346.894 1059.89 345.177C1062.5 344.113 1063.35 341.395 1065.52 339.955C1067.01 338.96 1072.67 337.35 1073.3 336.346C1078.42 328.23 1065.04 330.963 1061.11 331.488Z" fill="#3F3D56"/>
<path d="M1081.05 352.135C1074.99 355.528 1069.36 359.651 1064.29 364.412C1062.16 366.418 1059.98 368.914 1060.17 371.837C1060.43 375.722 1064.57 377.975 1068.15 379.493L1082.67 385.642C1084.43 383.158 1082.82 379.731 1081 377.291C1079.18 374.851 1077.02 372.027 1077.82 369.091C1078.74 365.74 1082.83 364.598 1086.25 364.021C1091.83 363.08 1106.89 363.156 1105.08 354.16C1102.95 343.559 1086.66 349.003 1081.05 352.135Z" fill="#3F3D56"/>
<path d="M1078.13 952.016C1076.75 956.019 1076.62 960.733 1079.01 964.228C1081.7 968.149 1087.07 969.611 1091.71 968.616C1096.34 967.385 1100.46 964.734 1103.5 961.035C1106.28 957.937 1108.57 954.429 1110.28 950.635C1112.67 944.722 1114.36 938.548 1115.31 932.241L1119.82 908.567C1120.83 903.276 1120.79 887.055 1111.06 892.34C1108.41 893.784 1102.26 905.183 1099.47 908.416C1094.46 914.242 1093.79 919.895 1091.15 926.953C1087.84 935.793 1081.19 943.161 1078.13 952.016Z" fill="#3F3D56"/>
<path d="M1591.7 1073.16C1588.52 1071.92 1585.43 1070.45 1582.46 1068.76C1579.48 1076.95 1577.9 1085.58 1577.78 1094.29L1599.55 1081.97C1602.82 1080.12 1606.53 1077.54 1606.46 1073.78C1606.49 1073.32 1606.4 1072.85 1606.19 1072.44C1605.97 1072.02 1605.65 1071.67 1605.26 1071.42C1604.78 1071.23 1604.25 1071.17 1603.73 1071.25C1600.51 1071.51 1597.56 1073.1 1594.52 1074.21C1591.47 1075.31 1587.91 1075.9 1585.12 1074.26" fill="#3F3D56"/>
<path d="M1706.55 1080.48C1704.16 1081.13 1701.83 1081.97 1699.57 1082.98C1694.57 1085.53 1691.17 1090.35 1686.68 1093.7C1682.37 1096.91 1677.19 1098.67 1672.11 1100.38C1670.61 1101.7 1671.3 1104.36 1672.93 1105.52C1674.67 1106.52 1676.67 1106.97 1678.68 1106.82C1683.96 1106.93 1689.52 1106.98 1694.15 1104.43C1696.76 1102.74 1699.2 1100.8 1701.43 1098.65C1706.84 1094.14 1713.34 1091.16 1719.77 1088.28C1722.11 1087.4 1724.28 1086.1 1726.16 1084.46C1730.2 1080.48 1730.49 1074.33 1724.66 1072.98C1719.95 1071.88 1711.03 1079.03 1706.55 1080.48Z" fill="#3F3D56"/>
<path d="M1757.29 1047.33C1757.56 1044.59 1757.19 1041.82 1756.23 1039.25C1755.27 1036.67 1753.73 1034.34 1751.74 1032.44C1751.68 1037.93 1751.51 1043.76 1748.43 1048.3C1746.23 1051.53 1742.79 1053.71 1740.38 1056.78C1737.98 1059.86 1736.91 1064.74 1739.73 1067.44C1741.54 1068.81 1743.73 1069.57 1746 1069.6C1751.62 1070.26 1758.12 1070.63 1762.06 1066.57C1764.21 1064.35 1765.26 1061.07 1767.88 1059.44C1768.86 1059.03 1769.73 1058.4 1770.44 1057.61C1771.52 1055.89 1769.8 1053.62 1767.86 1053C1765.92 1052.38 1763.79 1052.67 1761.84 1052.08C1759.89 1051.49 1758.11 1049.3 1759.11 1047.53" fill="#3F3D56"/>
<path d="M1667.1 846.361C1664.16 847.078 1661.1 847.258 1658.09 846.892C1653.09 845.973 1649.2 842.203 1645.16 839.111C1635.56 831.801 1623.89 827.723 1611.83 827.464C1600.86 827.257 1589.78 830.23 1579 828.156C1579.71 832.072 1583.06 835.01 1586.63 836.756C1590.21 838.502 1594.16 839.381 1597.75 841.091C1603.5 843.858 1608.07 848.606 1610.6 854.466C1611.76 857.167 1612.49 860.107 1614.24 862.465C1617.82 867.287 1624.61 868.345 1630.61 867.951C1638.42 867.437 1646.58 865.189 1653.85 868.101C1659.41 870.328 1663.39 875.196 1668.04 878.981C1672.68 882.766 1679.22 885.575 1684.55 882.844C1679.01 881.051 1674.19 877.534 1670.79 872.808C1667.4 868.081 1665.6 862.392 1665.66 856.571C1670.89 857.051 1685.95 856.865 1685.14 847.979C1684.45 840.448 1671.6 845.548 1667.1 846.361Z" fill="#3F3D56"/>
<path d="M1598.69 907.635C1599.62 902.542 1604.7 898.045 1603.12 893.115C1602.03 889.707 1598.07 888.024 1594.49 887.939C1590.92 887.855 1587.4 888.922 1583.82 889.022C1581.49 888.898 1579.16 888.931 1576.83 889.121C1569.73 890.289 1565.35 897.735 1558.66 900.383C1554.59 901.993 1550.01 901.685 1545.78 902.798C1536.17 905.324 1530.09 914.406 1523.37 921.728C1512.52 933.506 1498.38 941.753 1482.78 945.401C1477.32 946.666 1471.45 947.476 1467.1 951.024C1461.35 955.724 1459.94 963.781 1458.66 971.098C1455.12 991.304 1449.72 1011.14 1442.52 1030.35L1465.34 1033.26C1469.67 1033.81 1474.17 1034.36 1478.35 1033.07C1481.39 1031.93 1484.26 1030.39 1486.91 1028.51C1497.07 1022.2 1508.45 1018.1 1520.3 1016.46C1526.27 1015.64 1532.54 1015.49 1538.14 1017.71C1543.75 1019.93 1548.56 1024.97 1549.03 1030.98C1551.46 1030.23 1554.04 1030.15 1556.51 1030.75C1558.98 1031.35 1561.23 1032.61 1563.04 1034.39C1566.62 1038.03 1568.96 1042.7 1569.73 1047.74C1570.33 1050.87 1570.93 1054.61 1573.83 1055.92C1576.19 1056.99 1578.9 1055.83 1581.49 1055.63C1590.26 1054.93 1597.54 1065.16 1606.17 1063.39C1615.41 1061.51 1617.68 1047.65 1626.71 1044.88C1631.89 1043.29 1639.16 1045.22 1641.64 1040.4C1643.82 1036.15 1639.46 1031.25 1639.91 1026.49C1640.46 1020.64 1647.37 1018.15 1652.7 1015.65C1671.06 1007.03 1679.78 982.317 1670.88 964.087C1665.61 953.286 1655.23 944.784 1653.32 932.918C1651.84 923.789 1655.44 913.144 1649.62 905.958C1646.66 902.303 1641.65 900.285 1639.89 895.923C1638.78 893.178 1639.22 890.062 1638.63 887.162C1638.03 884.262 1635.5 881.228 1632.63 881.98C1624.32 884.162 1621.67 909.844 1617.22 916.085C1610.45 925.57 1596.56 919.322 1598.69 907.635Z" fill="#3F3D56"/>
<path d="M1445.04 856.064C1442.2 855.268 1439.1 854.483 1436.38 855.621C1433.65 856.76 1432.06 860.757 1434.25 862.74C1451.34 862.074 1468.54 861.413 1485.48 863.734C1505 866.408 1524.33 873.033 1543.94 871.084C1532.73 867.779 1521.35 865.137 1509.84 863.17L1490.64 859.503C1485.49 858.424 1480.29 857.62 1475.05 857.094C1464.1 856.189 1455.81 859.084 1445.04 856.064Z" fill="#3F3D56"/>
<path d="M1462.15 796.535C1460.73 796.417 1458.97 796.315 1458.24 797.535C1457.54 798.7 1458.34 800.241 1457.97 801.548C1457.45 803.333 1455.11 803.789 1453.27 803.546C1451.43 803.303 1449.43 802.721 1447.8 803.61C1446.97 804.175 1446.35 804.994 1446.03 805.943C1445.71 806.892 1445.7 807.92 1446.01 808.874C1446.68 810.766 1447.76 812.487 1449.17 813.912C1451.58 816.954 1454.33 819.713 1457.37 822.136C1463.24 826.473 1471.2 828.562 1474.9 834.857C1475.42 836.077 1476.23 837.157 1477.24 838.009C1479.02 839.134 1481.33 838.278 1483.25 837.404L1489.95 834.341C1491.16 833.906 1492.24 833.173 1493.08 832.21C1494.61 830.132 1493.67 827.177 1492.39 824.938C1491.1 822.7 1489.46 820.383 1489.73 817.816C1490.23 813.24 1496.11 811.49 1498.53 807.574C1500.97 803.628 1499.38 798.542 1499.66 793.911C1499.99 788.495 1503.39 781.451 1497.92 777.404C1493.26 773.965 1488.82 777.143 1485.48 780.939C1478.43 788.946 1475.1 797.617 1462.15 796.535Z" fill="#3F3D56"/>
<path d="M1502.84 715.614C1505.13 719.996 1509.9 722.611 1512.39 726.879C1515.1 731.504 1514.79 737.481 1517.72 741.964C1520.73 746.564 1526.79 749.006 1528.48 754.238C1530.32 759.95 1526.14 766.893 1529.48 771.884C1530.1 772.7 1530.88 773.377 1531.78 773.874C1532.68 774.371 1533.67 774.676 1534.69 774.77C1535.71 774.864 1536.74 774.744 1537.71 774.419C1538.68 774.094 1539.58 773.571 1540.34 772.882C1541.74 771.352 1542.5 769.332 1542.44 767.255C1542.37 765.178 1541.5 763.207 1540.01 761.762C1538.04 759.962 1535.2 759.185 1533.55 757.082C1532.7 755.869 1532.12 754.477 1531.88 753.011C1530.98 748.781 1531.13 744.396 1532.3 740.235C1532.74 739.179 1532.85 738.014 1532.62 736.893C1531.88 734.736 1528.96 734.583 1526.91 733.583C1522.26 731.31 1522.37 724.74 1523.18 719.624C1522.64 723.03 1510.51 717.237 1509.24 715.307C1506.72 711.475 1508.09 704.081 1507.59 699.845C1502.14 702.471 1500.04 710.256 1502.84 715.614Z" fill="#3F3D56"/>
<path d="M1380.62 783.036C1378.38 780.529 1375 777.907 1372 779.419C1369.71 780.572 1369.08 783.741 1369.98 786.144C1371.07 788.477 1372.76 790.485 1374.86 791.968C1381.12 797.128 1387.86 801.785 1393.32 807.783C1403.08 818.518 1408.26 833.003 1418.88 842.892C1421.01 845.184 1423.84 846.714 1426.93 847.248C1430.02 847.536 1433.5 845.555 1433.85 842.467C1434.15 839.923 1432.37 837.647 1430.64 835.762C1426.51 831.273 1422 827.142 1418.1 822.451C1416.3 820.65 1415.17 818.288 1414.9 815.757C1414.88 813.232 1417.18 810.588 1419.63 811.214C1416.65 810.453 1414.44 805.496 1410.08 804.564C1406.43 803.785 1405.54 806.045 1401.2 804.182C1392.92 800.628 1386.42 789.531 1380.62 783.036Z" fill="#3F3D56"/>
<path d="M1575.26 538.933C1572.89 538.227 1570.55 537.392 1568.27 536.433C1562.12 534.586 1553.98 539.108 1554.8 545.478C1555.34 549.71 1559.28 552.563 1561.46 556.234C1564.68 561.678 1563.82 568.583 1562.13 574.68C1561.71 576.568 1560.92 578.353 1559.8 579.929C1558.23 581.592 1556.36 582.938 1554.29 583.894C1545.98 588.552 1538.66 594.776 1532.72 602.22C1532.07 602.908 1531.62 603.756 1531.41 604.676C1531.12 606.827 1533.28 608.394 1534.51 610.187C1537.22 614.172 1535.26 619.534 1535.53 624.348C1535.48 625.028 1535.62 625.708 1535.91 626.323C1536.21 626.938 1536.66 627.467 1537.21 627.86C1538.85 628.692 1540.79 627.28 1541.67 625.673C1544.62 620.34 1542.4 611.78 1547.92 609.209C1548.97 608.723 1550.23 608.518 1550.93 607.6C1552.03 606.145 1550.97 603.99 1551.53 602.25C1552.37 599.638 1555.94 599.52 1558.68 599.636C1563.41 599.834 1568.13 599.205 1572.63 597.779C1574.4 597.359 1576.01 596.429 1577.25 595.105C1578.9 593.045 1578.76 590.115 1578.43 587.496C1576.77 574.439 1572.64 561.819 1566.24 550.317C1571.09 550.937 1576.37 551.473 1580.55 548.945C1582.9 547.53 1585.71 543.297 1584.54 540.416C1582.71 535.86 1579.39 539.695 1575.26 538.933Z" fill="#3F3D56"/>
<path d="M953.501 610.745C954.082 613.858 954.652 617.136 953.632 620.134C952.612 623.132 949.403 625.637 946.372 624.719C944.021 624.006 942.662 621.641 940.992 619.838C931.705 609.811 910.752 615.616 905.015 603.211C902.673 598.148 904.264 592.082 902.667 586.738C901.66 583.649 899.655 580.982 896.968 579.157C894.28 577.331 891.063 576.449 887.82 576.651C884.863 577.078 881.984 577.937 879.277 579.201C861.137 586.467 842.094 591.23 822.671 593.361C818.979 593.586 815.328 594.25 811.794 595.34C803.819 598.232 798.369 605.626 794.491 613.172C790.613 620.718 787.75 628.887 782.551 635.591C777.087 642.637 769.429 647.57 762.287 652.907C759.535 654.68 757.244 657.082 755.602 659.914C754.054 663.093 754.141 666.791 754.261 670.326L755.721 713.252C755.909 718.774 756.144 724.493 758.615 729.434C761.701 735.604 767.796 739.645 772.025 745.096C776.341 750.697 778.589 757.618 778.389 764.686C778.299 767.528 778.016 770.889 780.229 772.674C781.575 773.547 783.151 774 784.755 773.976L842.817 778.728C853.03 779.564 864.349 780.939 871.017 788.721C874.164 792.394 876.692 797.675 881.513 798.069C883.58 798.238 885.592 797.389 887.66 797.226C892.878 796.812 897.461 800.773 900.354 805.135C904.732 811.784 906.719 819.724 905.99 827.652C905.515 832.628 903.973 837.466 903.64 842.453C902.375 861.432 918.461 877.92 918.773 896.938C918.957 908.124 913.647 918.576 908.47 928.494C916.825 941.153 909.983 958.01 913.31 972.808C916.466 986.848 928.171 997.839 931.087 1011.93C932.423 1018.38 932.5 1026.32 938.188 1029.64C940.684 1030.86 943.451 1031.41 946.222 1031.25C962.942 1031.45 979.47 1027.69 994.456 1020.27C1001.49 1016.78 1008.78 1011.57 1010.01 1003.81C1011 997.558 1007.83 990.562 1011.05 985.114C1014.86 978.693 1024.6 979.202 1030.2 974.265C1039.28 966.257 1032.2 950.982 1035.88 939.447C1039.18 929.078 1050.57 923.569 1056.21 914.263C1058.43 910.261 1060.02 905.941 1060.94 901.456C1063.52 890.735 1065.13 879.802 1065.74 868.791C1065.89 862.101 1066.39 855.423 1067.22 848.784C1073.3 810.984 1110.67 785.672 1122.8 749.359C1123.96 745.891 1124.5 741.271 1121.42 739.309C1119.59 738.436 1117.52 738.219 1115.54 738.694L1088.78 742.069C1085.46 742.488 1081.93 742.88 1078.88 741.499C1075.83 740.118 1073.64 736.255 1075.26 733.322C1079.8 725.087 1070.45 714.68 1066.3 706.241C1055.11 683.516 1041.79 661.907 1026.51 641.705C1025.53 640.665 1024.92 639.335 1024.76 637.917L1032.36 638.17C1029.79 628.967 1025.56 618.898 1016.62 615.532C1011.59 613.635 1006.01 614.291 1000.63 614.584C985.24 615.425 968.737 613.101 953.501 610.745Z" fill="#3F3D56"/>
<path d="M1000.65 403.376C1004.67 407.654 1009.19 412.19 1015.02 412.935C1025.31 414.252 1032.71 403.606 1037.43 394.359C1037.6 396.716 1038.69 398.913 1040.46 400.481C1042.22 402.049 1044.53 402.865 1046.9 402.756C1049.44 402.329 1051.86 401.38 1054.02 399.971C1074.42 388.824 1097.26 382.917 1120.5 382.783C1120.28 381.022 1120.72 379.241 1121.73 377.783C1122.74 376.325 1124.26 375.294 1125.99 374.889C1130.71 373.952 1134.97 378.038 1137.25 382.282C1139.53 386.527 1140.95 391.447 1144.57 394.624C1148.19 397.801 1155.21 397.662 1156.64 393.062C1158.01 388.645 1153.41 384.878 1149.59 382.274C1145.76 379.67 1141.73 374.85 1144.31 371.007C1163.84 366.684 1183.49 362.344 1203.47 361.485C1206.87 361.603 1210.26 361.019 1213.43 359.769C1216.48 358.273 1218.9 354.878 1218.08 351.584C1213.72 352.609 1209.15 352.312 1204.96 350.731C1200.77 349.15 1197.14 346.356 1194.55 342.706C1222.27 340.418 1251.76 338.467 1276.34 351.516C1279.29 357.847 1264.26 363.114 1268.28 368.824C1269.56 370.645 1272.13 370.859 1274.36 370.9C1291.43 371.217 1308.61 371.528 1325.49 368.95C1331.66 368.008 1337.89 366.678 1344.09 367.442C1354.41 368.714 1363.23 375.599 1373.38 377.844C1377.51 378.758 1382.15 378.789 1385.63 376.385C1389.11 373.982 1390.61 368.51 1387.76 365.386C1397.31 356.018 1413.17 358.34 1425.78 362.825C1438.39 367.31 1450.34 374.542 1463.68 375.542C1473.25 376.259 1482.95 373.684 1492.41 375.321C1498.35 376.349 1503.88 378.993 1509.69 380.617C1520.67 383.689 1532.29 383.04 1543.7 383.188C1572.79 383.58 1601.57 389.3 1628.61 400.063C1632.13 401.208 1635.35 403.113 1638.05 405.641C1640.57 408.335 1641.85 412.522 1640.16 415.798L1612.22 411.715C1614.85 416.898 1621.66 417.781 1627.19 419.569C1632.72 421.357 1638.46 427.465 1635.13 432.233C1629.14 430.325 1623.71 436.317 1620.69 441.83C1617.66 447.342 1613.97 453.945 1607.69 454.281C1602.07 454.581 1595.27 449.793 1591.6 454.068C1596.66 460.457 1601 467.39 1604.53 474.74C1608.15 482.285 1610.73 491.792 1605.83 498.58C1605.06 499.792 1603.9 500.697 1602.53 501.142C1598.53 502.154 1595.94 497.263 1593.07 494.299C1589.46 490.564 1584 489.506 1579.1 487.754C1574.21 486.002 1569.06 482.556 1568.68 477.373C1568.44 474.149 1570.14 471.152 1571.39 468.172C1573.5 463.149 1574.42 457.708 1574.09 452.271C1573.81 447.897 1572.59 443.347 1569.45 440.29C1566.3 437.234 1560.88 436.265 1557.51 439.064C1555.94 440.37 1554.67 442.459 1552.63 442.537C1549.02 442.675 1546.25 436.38 1543.34 438.529C1543.69 440.819 1543.21 443.155 1542 445.13C1533.34 452.669 1520.02 449.48 1508.85 452.143C1503.53 453.664 1498.45 455.886 1493.72 458.75C1491.95 459.506 1490.45 460.769 1489.4 462.38C1488 465.091 1489.54 468.562 1492 470.365C1494.6 471.964 1497.53 472.964 1500.57 473.293C1514.2 475.873 1528.02 479.868 1538.77 488.618C1549.53 497.369 1556.58 511.834 1553.18 525.276L1526.31 499.604C1527.33 510.383 1527.91 521.192 1528.05 532.031C1528.22 534.147 1527.93 536.276 1527.2 538.268C1525.28 542.498 1520.09 543.922 1515.55 544.856C1514.28 545.096 1513.08 545.601 1512.02 546.339C1510.97 547.076 1510.08 548.028 1509.42 549.133C1508.76 550.237 1508.34 551.47 1508.18 552.749C1508.03 554.027 1508.15 555.324 1508.54 556.553C1510.15 561.821 1514.18 565.928 1517.87 570.021C1521.56 574.113 1525.19 578.765 1525.68 584.254C1526.16 589.743 1522.02 595.93 1516.52 595.549C1512.35 595.259 1509.26 591.529 1507.49 587.749C1505.71 583.968 1504.65 579.757 1501.98 576.545C1493.9 566.823 1475.74 570.988 1468.5 560.624C1466.66 562.718 1465.38 565.249 1464.78 567.976C1464.19 570.704 1464.3 573.538 1465.12 576.209C1468.48 574.1 1473.1 576.06 1475.63 579.124C1478.16 582.189 1479.35 586.117 1481.34 589.559C1484.02 594.204 1488.29 598.321 1488.66 603.671C1488.56 605.694 1488.6 607.722 1488.77 609.74C1489.43 612.982 1492.17 615.31 1494.07 618.02C1498.49 624.324 1498.27 632.986 1495.42 640.14C1492.57 647.294 1487.46 653.271 1482.39 659.067C1473.53 669.189 1464.5 679.252 1454 687.659C1451 690.057 1447.81 692.416 1445.94 695.769C1444.07 699.123 1443.98 703.83 1446.85 706.381C1444.79 706.484 1441.12 707.493 1439.06 707.596C1438.34 699.366 1438.19 691.097 1438.6 682.845C1430.5 678.958 1421.78 689.368 1422.83 698.288C1423.87 707.208 1430.32 714.366 1434.92 722.083C1438.28 727.727 1440.77 734.307 1439.65 740.778C1438.53 747.249 1432.75 753.218 1426.21 752.648C1415.81 751.74 1411.45 736.8 1401.15 735.09C1400.24 734.877 1399.29 734.972 1398.44 735.359C1396.91 736.199 1396.64 738.246 1396.56 739.989C1396.13 748.543 1395.77 757.437 1399.11 765.324C1403.99 776.861 1416.61 786.552 1413.96 798.798C1399.71 792.169 1392.29 776.176 1388.93 760.814C1385.56 745.453 1385 729.326 1378.96 714.803C1374.38 720.677 1364.75 715.821 1360.56 709.66C1356.6 703.819 1354.15 697.061 1350.3 691.141C1346.45 685.221 1340.55 679.92 1333.5 679.594C1326.1 679.253 1319.69 684.329 1314.05 689.125C1309.41 693.069 1304.65 697.168 1301.93 702.62C1297.99 710.553 1299.02 719.905 1298.83 728.763C1298.63 738.34 1296.6 748.444 1290.07 755.455C1283.54 762.466 1271.5 764.908 1264.3 758.589C1260.54 755.29 1258.72 750.362 1257.1 745.631C1249.29 722.827 1242.78 699.596 1237.61 676.051C1236.4 681.425 1231.68 688.351 1227.18 685.186C1226.16 684.335 1225.34 683.279 1224.77 682.088C1216.36 667.836 1200.79 659.288 1185.06 654.162C1169.33 649.036 1152.78 646.646 1137.22 641.012C1128.5 637.854 1120.17 633.706 1112.4 628.649C1110.42 631.56 1109.26 634.953 1109.05 638.469C1108.84 641.984 1109.59 645.491 1111.21 648.617C1114.66 654.728 1122.47 658.264 1129.15 656.128C1132.61 655.024 1135.52 652.626 1138.95 651.441C1142.38 650.257 1146.98 650.838 1148.48 654.141C1149.91 657.302 1147.75 661.126 1148.82 664.427C1150.46 669.454 1158.04 669.842 1160.69 674.416C1162.66 677.82 1161.04 682.34 1158.23 685.087C1155.41 687.833 1151.65 689.34 1148.21 691.251C1137.06 697.455 1129.13 708.045 1119.38 716.284C1109.63 724.523 1095.88 730.539 1084.26 725.254C1087.03 711.229 1070.32 700.932 1067.25 686.971C1066.24 682.376 1066.76 677.494 1065.32 673.016C1063.23 666.533 1057.48 662.075 1052.76 657.161C1047.03 651.137 1042.57 644.028 1039.64 636.252C1036.71 628.477 1035.37 620.193 1035.69 611.889C1035.95 606.119 1037.01 600.255 1035.69 594.631C1034.38 589.007 1029.72 583.564 1023.95 583.819C1010.77 584.401 994.174 585.381 987.26 574.147C984.793 570.137 983.719 564.265 987.286 561.193C989.803 559.026 993.518 559.23 996.823 559.555L1026.51 562.476C1033.46 563.159 1040.96 563.723 1046.92 560.093C1052.88 556.462 1055.46 546.824 1049.95 542.553C1045.91 539.432 1038.69 539.601 1037.52 534.639C1036.54 530.506 1041.12 525.817 1038.65 522.363C1036.88 519.886 1032.89 520.574 1030.48 522.43C1028.07 524.287 1026.32 527.002 1023.62 528.407C1018.88 530.873 1013.22 528.526 1008.12 526.931C1003.02 525.336 996.189 525.201 993.717 529.935C990.952 535.231 996.17 542.169 993.425 547.475C989.798 554.49 977.511 550.496 972.416 556.53C966.57 563.454 976.395 573.779 974.423 582.625C971.906 583.871 969.108 584.444 966.304 584.286C963.499 584.129 960.783 583.246 958.421 581.725C956.099 580.145 954.247 577.965 953.065 575.417C951.882 572.868 951.412 570.047 951.705 567.252C952.193 563.273 954.267 559.211 952.877 555.451C951.754 552.411 948.701 550.601 945.865 549.033L917.012 533.088C914.333 538.058 917.72 544.219 921.955 547.951C926.191 551.684 931.496 554.496 934.278 559.408C936.038 562.812 936.432 566.759 935.381 570.443C934.329 574.128 931.911 577.272 928.62 579.234C928.207 579.519 927.738 579.711 927.245 579.797C926.751 579.883 926.244 579.861 925.76 579.733C925.3 579.462 924.898 579.102 924.58 578.674C924.261 578.245 924.032 577.757 923.905 577.238C918.814 564.209 911.171 551.364 898.952 544.558C886.732 537.752 869.174 539.151 861.16 550.616C859.257 553.339 857.98 556.443 856.322 559.322C847.513 574.619 828.628 581.862 810.985 581.389C809.259 581.484 807.542 581.081 806.039 580.227C803.187 578.257 803.316 574.078 803.752 570.639L805.604 556.048C805.976 553.118 806.515 549.88 808.834 548.051C812.103 545.473 816.818 547.1 820.98 547.04C824.134 546.892 827.166 545.778 829.665 543.849C832.164 541.92 834.01 539.269 834.952 536.256C835.793 533.213 835.788 529.998 834.937 526.957C834.085 523.917 832.421 521.166 830.122 519.002C828.215 517.21 825.654 514.959 826.662 512.543C827.064 511.875 827.607 511.303 828.254 510.867C828.901 510.432 829.635 510.143 830.406 510.022C837.883 507.85 845.783 507.281 853.135 504.719C860.488 502.156 867.618 496.914 869.359 489.325C869.893 486.999 870.136 484.182 872.225 483.029C873.273 482.586 874.398 482.356 875.536 482.352C879.522 481.785 883.151 479.746 885.71 476.637C888.268 473.527 889.569 469.573 889.358 465.552C892.882 463.089 897.818 464.901 901.227 467.52C904.636 470.139 907.645 473.599 911.793 474.728C919.523 476.832 926.993 469.987 935.004 469.955C938.372 469.942 941.86 471.133 945.029 469.991C948.242 468.833 950.161 465.635 952.626 463.272C955.092 460.908 959.419 459.467 961.696 462.013L959.757 447.649C963.662 448.636 967.732 448.776 971.696 448.059C975.659 447.342 979.423 445.786 982.735 443.495L957.676 435.027C956.803 434.809 955.998 434.378 955.333 433.774C953.511 431.812 955.32 428.754 956.802 426.524C960.346 421.189 960.941 412.4 955.113 409.744C951.135 407.931 946.568 410.107 942.75 412.236L924.46 422.435C923.879 425.912 928.13 427.883 930.765 430.225C932.359 431.642 933.487 433.508 934.001 435.578C934.515 437.648 934.391 439.825 933.646 441.823C932.9 443.821 931.567 445.547 929.823 446.774C928.079 448.001 926.004 448.672 923.871 448.698C925.076 450.264 925.913 452.081 926.32 454.014C926.727 455.947 926.694 457.947 926.224 459.866L913.918 460.751C912.537 461.029 911.102 460.749 909.926 459.972C908.61 458.803 908.789 456.754 908.484 455.021C907.747 450.836 903.65 447.903 899.468 447.151C895.287 446.399 891.009 447.363 886.868 448.314C885.11 448.947 883.179 448.903 881.452 448.189C880.462 447.546 879.709 446.596 879.309 445.485C877.494 441.083 879.191 435.908 882.106 432.144C885.022 428.379 889.013 425.627 892.598 422.493C901.17 414.971 907.468 405.202 910.781 394.288C917.555 391.45 924.569 387.593 931.343 384.754C941.787 379.465 953.5 377.196 965.163 378.201L988.106 378.639C994.898 378.769 1001.87 378.935 1008.16 381.525C1014.44 384.114 1019.96 389.716 1020.39 396.496C1020.52 397.264 1020.45 398.052 1020.2 398.787C1019.94 399.522 1019.5 400.18 1018.92 400.698C1018.03 401.182 1017.03 401.409 1016.02 401.352C1009.68 401.574 1006.98 403.153 1000.65 403.376Z" fill="#3F3D56"/>
<path d="M817.781 475.285C818.677 474.436 819.322 473.357 819.645 472.166C819.968 470.974 819.956 469.717 819.611 468.532C817.43 467.69 815.057 467.474 812.76 467.908C810.463 468.342 808.332 469.408 806.608 470.988C805.249 472.362 804.078 473.911 803.125 475.593C800.11 480.512 797.444 486.388 799.191 491.886C799.333 492.486 799.594 493.051 799.958 493.549C800.321 494.046 800.781 494.466 801.309 494.784C802.092 495.098 802.936 495.23 803.778 495.17C807.099 495.166 810.417 494.962 813.713 494.559C815.738 494.311 818.089 493.739 818.871 491.856C819.9 489.38 817.411 486.577 818.136 483.996C818.614 482.842 819.337 481.806 820.256 480.96C820.712 480.534 821.063 480.008 821.28 479.423C821.497 478.838 821.574 478.21 821.506 477.59C821.214 476.379 819.359 475.692 818.692 476.744" fill="#3F3D56"/>
<path d="M835.002 452.955C832.051 452.278 829.01 452.087 825.998 452.39C825.332 452.37 824.672 452.52 824.08 452.826C823.506 453.249 823.09 453.851 822.898 454.538C822.262 456.58 822.418 458.787 823.336 460.718C824.253 462.65 825.865 464.165 827.85 464.962C828.931 465.211 829.967 465.627 830.92 466.196C833.467 468.172 831.843 472.211 832.325 475.398C832.867 478.977 836.33 481.981 835.695 485.544C835.195 488.351 832.197 490.574 832.68 493.384C833.185 496.328 836.92 497.212 839.897 497.448C841.622 497.75 843.398 497.547 845.01 496.862C846.626 495.757 847.776 494.092 848.237 492.19C849.455 488.561 849.967 484.733 849.745 480.912C849.732 479.175 849.296 477.466 848.474 475.935C847.577 474.722 846.584 473.584 845.502 472.532C839.799 465.897 845.804 456 835.002 452.955Z" fill="#3F3D56"/>
<path opacity="0.8" d="M1585.02 972.733C1585.02 972.733 1148.18 721.951 960.113 769.468C960.113 769.468 561.542 812.365 515.35 906.738C515.35 906.738 388.652 510.767 342.46 497.568" stroke="#6C63FF" stroke-width="1.60185" stroke-miterlimit="10"/>
<path opacity="0.8" d="M515.35 906.738C588.597 711.392 1248.48 494.928 1248.48 494.928C1154.78 518.687 960.113 769.468 960.113 769.468C960.113 769.468 548.344 469.85 342.46 497.568C342.46 497.568 1249.14 527.266 1585.02 972.733" stroke="#6C63FF" stroke-width="1.60185" stroke-miterlimit="10"/>
<path d="M342.46 516.707C353.029 516.707 361.597 508.138 361.597 497.568C361.597 486.998 353.029 478.43 342.46 478.43C331.891 478.43 323.323 486.998 323.323 497.568C323.323 508.138 331.891 516.707 342.46 516.707Z" fill="#6C63FF"/>
<path d="M515.35 925.876C525.919 925.876 534.486 917.308 534.486 906.738C534.486 896.168 525.919 887.599 515.35 887.599C504.781 887.599 496.213 896.168 496.213 906.738C496.213 917.308 504.781 925.876 515.35 925.876Z" fill="#6C63FF"/>
<path d="M1248.48 514.067C1259.05 514.067 1267.62 505.498 1267.62 494.928C1267.62 484.358 1259.05 475.79 1248.48 475.79C1237.91 475.79 1229.35 484.358 1229.35 494.928C1229.35 505.498 1237.91 514.067 1248.48 514.067Z" fill="#6C63FF"/>
<path d="M1585.02 991.871C1595.59 991.871 1604.16 983.302 1604.16 972.732C1604.16 962.163 1595.59 953.594 1585.02 953.594C1574.45 953.594 1565.89 962.163 1565.89 972.732C1565.89 983.302 1574.45 991.871 1585.02 991.871Z" fill="#6C63FF"/>
<path d="M960.112 788.606C970.681 788.606 979.249 780.038 979.249 769.468C979.249 758.898 970.681 750.329 960.112 750.329C949.543 750.329 940.975 758.898 940.975 769.468C940.975 780.038 949.543 788.606 960.112 788.606Z" fill="#6C63FF"/>
</g>
<defs>
<clipPath id="clip0_1_15043">
<rect width="1881.37" height="1397.61" fill="white" transform="translate(0.15918 0.800537)"/>
</clipPath>
</defs>
</svg>
